<svg width="58" height="16" viewBox="0 0 58 16" fill="none" xmlns="http://www.w3.org/2000/svg">
<path d="M11.7246 15H9.25391L2.91602 4.91211V15H0.445312V0.78125H2.91602L9.27344 10.9082V0.78125H11.7246V15ZM13.9707 9.61914C13.9707 8.58398 14.1758 7.65299 14.5859 6.82617C14.9961 5.99284 15.5723 5.35482 16.3145 4.91211C17.0566 4.46289 17.9095 4.23828 18.873 4.23828C20.2988 4.23828 21.4544 4.69727 22.3398 5.61523C23.2318 6.5332 23.7135 7.75065 23.7852 9.26758L23.7949 9.82422C23.7949 10.8659 23.5931 11.7969 23.1895 12.6172C22.7923 13.4375 22.2194 14.0723 21.4707 14.5215C20.7285 14.9707 19.8691 15.1953 18.8926 15.1953C17.4017 15.1953 16.207 14.7005 15.3086 13.7109C14.4167 12.7148 13.9707 11.39 13.9707 9.73633V9.61914ZM16.3438 9.82422C16.3438 10.9115 16.5684 11.7643 17.0176 12.3828C17.4668 12.9948 18.0918 13.3008 18.8926 13.3008C19.6934 13.3008 20.3151 12.9883 20.7578 12.3633C21.207 11.7383 21.4316 10.8236 21.4316 9.61914C21.4316 8.55143 21.2005 7.70508 20.7383 7.08008C20.2826 6.45508 19.6608 6.14258 18.873 6.14258C18.0983 6.14258 17.4831 6.45182 17.0273 7.07031C16.5716 7.68229 16.3438 8.60026 16.3438 9.82422ZM31.0117 15V0.78125H35.8848C37.4928 0.78125 38.7168 1.10352 39.5566 1.74805C40.3965 2.39258 40.8164 3.35286 40.8164 4.62891C40.8164 5.27995 40.6406 5.86589 40.2891 6.38672C39.9375 6.90755 39.4232 7.3112 38.7461 7.59766C39.5143 7.80599 40.1068 8.19987 40.5234 8.7793C40.9466 9.35221 41.1582 10.0423 41.1582 10.8496C41.1582 12.1842 40.7285 13.2096 39.8691 13.9258C39.0163 14.6419 37.7923 15 36.1973 15H31.0117ZM33.4824 8.58398V13.0273H36.2266C37.0013 13.0273 37.6068 12.8353 38.043 12.4512C38.4792 12.0671 38.6973 11.5332 38.6973 10.8496C38.6973 9.37174 37.9421 8.61654 36.4316 8.58398H33.4824ZM33.4824 6.76758H35.9043C36.6725 6.76758 37.2715 6.59505 37.7012 6.25C38.1374 5.89844 38.3555 5.40365 38.3555 4.76562C38.3555 4.0625 38.1536 3.55469 37.75 3.24219C37.3529 2.92969 36.7311 2.77344 35.8848 2.77344H33.4824V6.76758ZM45.9238 15H43.5508V4.43359H45.9238V15ZM43.4043 1.68945C43.4043 1.32487 43.5182 1.02214 43.7461 0.78125C43.9805 0.540365 44.3125 0.419922 44.7422 0.419922C45.1719 0.419922 45.5039 0.540365 45.7383 0.78125C45.9727 1.02214 46.0898 1.32487 46.0898 1.68945C46.0898 2.04753 45.9727 2.34701 45.7383 2.58789C45.5039 2.82227 45.1719 2.93945 44.7422 2.93945C44.3125 2.93945 43.9805 2.82227 43.7461 2.58789C43.5182 2.34701 43.4043 2.04753 43.4043 1.68945ZM48.0723 9.63867C48.0723 8.01107 48.4499 6.70573 49.2051 5.72266C49.9603 4.73307 50.9727 4.23828 52.2422 4.23828C53.362 4.23828 54.2669 4.62891 54.957 5.41016V0H57.3301V15H55.1816L55.0645 13.9062C54.3548 14.7656 53.4076 15.1953 52.2227 15.1953C50.9857 15.1953 49.9831 14.6973 49.2148 13.7012C48.4531 12.7051 48.0723 11.3509 48.0723 9.63867ZM50.4453 9.84375C50.4453 10.918 50.6504 11.7578 51.0605 12.3633C51.4772 12.9622 52.0664 13.2617 52.8281 13.2617C53.7982 13.2617 54.5078 12.8288 54.957 11.9629V7.45117C54.5208 6.60482 53.8177 6.18164 52.8477 6.18164C52.0794 6.18164 51.487 6.48763 51.0703 7.09961C50.6536 7.70508 50.4453 8.61979 50.4453 9.84375Z" fill="#FC4B4E"/>
</svg>
