<svg width="97" height="30" viewBox="0 0 97 30" fill="none" xmlns="http://www.w3.org/2000/svg">
<path opacity="0.8" d="M5.18818 21.8397L2.66273 15.194L4.94034 14.3285C5.69193 14.0429 6.32124 13.9761 6.82825 14.1282C7.33526 14.2803 7.70209 14.6545 7.92873 15.2509C8.04437 15.5552 8.06628 15.8603 7.99447 16.1662C7.92266 16.472 7.75397 16.752 7.48839 17.0062C7.88445 16.9671 8.23131 17.046 8.52897 17.2428C8.82852 17.4354 9.04999 17.7204 9.19337 18.0977C9.43043 18.7215 9.41172 19.2771 9.13725 19.7644C8.86583 20.2506 8.35736 20.6354 7.61185 20.9187L5.18818 21.8397ZM5.20339 18.4021L5.99259 20.4789L7.27517 19.9915C7.63728 19.8539 7.88616 19.6566 8.02181 19.3996C8.15746 19.1426 8.16457 18.8543 8.04316 18.5348C7.78067 17.8441 7.29356 17.6252 6.58182 17.8783L5.20339 18.4021ZM4.88077 17.5531L6.01273 17.123C6.37179 16.9865 6.62109 16.7995 6.76064 16.5619C6.90207 16.3201 6.91612 16.0501 6.8028 15.7519C6.67792 15.4233 6.49339 15.2218 6.24923 15.1474C6.00811 15.0719 5.68976 15.1093 5.29418 15.2596L4.17135 15.6863L4.88077 17.5531Z" fill="white"/>
<path opacity="0.8" d="M12.7708 19.0318L11.6112 19.4432L9.23449 12.7428L10.3942 12.3315L12.7708 19.0318Z" fill="white"/>
<path opacity="0.8" d="M14.1942 18.5192L11.9734 11.7656L13.9679 11.1097C14.5648 10.9135 15.1373 10.8726 15.6855 10.987C16.2368 11.1004 16.7195 11.3597 17.1338 11.7649C17.548 12.1701 17.8588 12.6881 18.0663 13.319L18.1776 13.6576C18.3881 14.2977 18.4448 14.9027 18.3478 15.4726C18.2539 16.0415 18.0136 16.5351 17.6269 16.9535C17.2433 17.3709 16.7469 17.6798 16.1377 17.8801L14.1942 18.5192ZM13.4581 12.3259L15.0596 17.1963L15.825 16.9447C16.4403 16.7423 16.8489 16.3955 17.0506 15.9043C17.2543 15.4089 17.2408 14.8 17.0101 14.0775L16.8866 13.7017C16.6456 12.9689 16.3023 12.4615 15.8567 12.1797C15.411 11.8979 14.8852 11.8567 14.2791 12.056L13.4581 12.3259Z" fill="white"/>
<path opacity="0.8" d="M28.3522 12.4862L28.0744 7.0311L29.2611 6.72495L29.4485 14.0188L28.3043 14.3139L25.6981 9.62593L25.6566 14.997L24.5077 15.2934L21.1431 8.81923L22.3299 8.51307L24.7328 13.4099L24.7128 7.89833L25.7151 7.63975L28.3522 12.4862Z" fill="white"/>
<path opacity="0.8" d="M33.2823 13.1966L32.0772 13.4451L30.6412 6.4823L31.8463 6.23375L33.2823 13.1966Z" fill="white"/>
<path opacity="0.8" d="M39.5468 5.94378L37.3564 6.28452L38.2961 12.3251L37.085 12.5135L36.1454 6.4729L33.9742 6.81064L33.8211 5.82638L39.3937 4.95952L39.5468 5.94378Z" fill="white"/>
<path opacity="0.8" d="M46.5883 11.6641L45.3592 11.7224L45.2093 8.56681L42.0342 8.71761L42.1841 11.8732L40.9501 11.9318L40.6128 4.83047L41.8468 4.77186L41.9872 7.72752L45.1623 7.57671L45.0219 4.62106L46.251 4.56269L46.5883 11.6641Z" fill="white"/>
<path opacity="0.8" d="M56.947 10.6034C56.757 11.3411 56.3873 11.8821 55.838 12.2264C55.2892 12.5675 54.6146 12.6742 53.8141 12.5467C53.2548 12.4576 52.7823 12.2472 52.3968 11.9154C52.015 11.581 51.7472 11.151 51.5936 10.6255C51.44 10.1 51.4099 9.51343 51.5032 8.86575L51.6077 8.20996C51.7132 7.54774 51.9235 6.98297 52.2386 6.51566C52.5537 6.04835 52.9516 5.7129 53.4323 5.50932C53.9163 5.30625 54.446 5.25055 55.0214 5.34224C55.7961 5.46568 56.3862 5.77561 56.7917 6.27202C57.1971 6.76844 57.3772 7.40694 57.3319 8.18754L56.1168 7.99393C56.1394 7.48 56.0494 7.09319 55.8468 6.83347C55.648 6.57105 55.3204 6.40348 54.8639 6.33074C54.3335 6.24623 53.8942 6.37567 53.5461 6.71905C53.2018 7.05974 52.9667 7.60407 52.8409 8.35207L52.7418 8.9741C52.6209 9.73276 52.6638 10.3329 52.8703 10.7746C53.08 11.2167 53.4469 11.4795 53.9709 11.563C54.4498 11.6393 54.827 11.589 55.1025 11.4121C55.3779 11.2351 55.5877 10.901 55.7319 10.4097L56.947 10.6034Z" fill="white"/>
<path opacity="0.8" d="M71.348 9.4335L69.9962 13.9881C69.7813 14.7121 69.3784 15.2173 68.7875 15.5037C68.2006 15.7879 67.5217 15.8157 66.7509 15.5869C65.9707 15.3553 65.4129 14.964 65.0773 14.4128C64.7427 13.8584 64.6851 13.2115 64.9046 12.4719L66.255 7.92196L67.4346 8.27206L66.0815 12.8314C65.9463 13.287 65.9585 13.6692 66.1181 13.978C66.2777 14.2869 66.5822 14.508 67.0315 14.6413C67.9428 14.9118 68.541 14.5664 68.8263 13.6052L70.1683 9.0834L71.348 9.4335Z" fill="white"/>
<path opacity="0.8" d="M78.2402 12.7993L76.1416 12.0852L74.1721 17.8725L73.0119 17.4777L74.9814 11.6903L72.9012 10.9824L73.2222 10.0395L78.5611 11.8563L78.2402 12.7993Z" fill="white"/>
<path opacity="0.8" d="M77.6378 19.1138L76.4819 18.6919L78.9194 12.0135L80.0752 12.4353L77.6378 19.1138Z" fill="white"/>
<path opacity="0.8" d="M85.845 18.6585C85.5911 19.3072 85.2559 19.8332 84.8394 20.2365C84.424 20.6367 83.9556 20.8868 83.4341 20.9868C82.9167 21.0849 82.3868 21.0278 81.8442 20.8155C81.3076 20.6055 80.8797 20.2877 80.5604 19.862C80.2453 19.4346 80.0675 18.9333 80.0269 18.3581C79.9894 17.7841 80.0931 17.1798 80.3381 16.545L80.484 16.1722C80.7367 15.5265 81.0735 15.0011 81.4942 14.596C81.918 14.1921 82.3885 13.941 82.9058 13.8429C83.4274 13.7429 83.9579 13.7985 84.4975 14.0097C85.0371 14.2209 85.4635 14.5381 85.7767 14.9613C86.0942 15.3827 86.2711 15.8819 86.3074 16.4589C86.3449 17.0329 86.2388 17.6433 85.9892 18.2902L85.845 18.6585ZM84.8299 17.8627C85.117 17.1291 85.1977 16.5122 85.0718 16.012C84.949 15.513 84.633 15.1639 84.1238 14.9645C83.6266 14.77 83.1606 14.813 82.7256 15.0937C82.2949 15.3726 81.9371 15.867 81.6522 16.577L81.5027 16.9589C81.2179 17.6864 81.1388 18.3039 81.2653 18.8113C81.3948 19.32 81.7112 19.6727 82.2144 19.8697C82.7236 20.069 83.1906 20.0281 83.6153 19.7468C84.043 19.4668 84.4028 18.9539 84.6946 18.2082L84.8299 17.8627Z" fill="white"/>
<path opacity="0.8" d="M91.3609 24.6592L90.2255 24.1725L89.3001 18.288L87.3128 22.924L86.1774 22.4372L88.9784 15.9029L90.1138 16.3896L91.0405 22.2959L93.0354 17.642L94.1619 18.1248L91.3609 24.6592Z" fill="white"/>
<path d="M61.8703 12.3632L59.1891 11.7347L58.2503 13.2148L57 12.9218L61.2372 6.6129L62.3164 6.86586L63.3133 14.4016L62.0583 14.1074L61.8703 12.3632ZM59.7539 10.844L61.7601 11.3143L61.4301 8.20779L59.7539 10.844Z" fill="#FFECD4"/>
</svg>
