<svg width="8" height="16" viewBox="0 0 8 16" fill="none" xmlns="http://www.w3.org/2000/svg">
<path opacity="0.8" d="M0.209748 1.1412L7.31146 0.811277L7.42453 3.24518C7.46185 4.04835 7.32929 4.66714 7.02686 5.10157C6.72442 5.53599 6.25454 5.76801 5.61721 5.79762C5.29204 5.81272 4.99531 5.73852 4.72701 5.57502C4.45872 5.41151 4.24518 5.16399 4.08639 4.83246C4.00017 5.221 3.81718 5.52604 3.53745 5.74759C3.26112 5.97225 2.92135 6.09394 2.51814 6.11267C1.85154 6.14364 1.32943 5.95282 0.951799 5.54021C0.574323 5.13086 0.36708 4.52784 0.330069 3.73118L0.209748 1.1412ZM3.47163 2.22635L1.25234 2.32945L1.31601 3.70004C1.33399 4.08699 1.44396 4.38494 1.64594 4.59389C1.84791 4.80285 2.11961 4.89939 2.46104 4.88353C3.19917 4.84924 3.55885 4.45452 3.54006 3.69937L3.47163 2.22635ZM4.37885 2.1842L4.43505 3.39383C4.45287 3.77753 4.55294 4.07269 4.73525 4.27929C4.92096 4.489 5.17315 4.58645 5.49182 4.57165C5.843 4.55533 6.09195 4.44275 6.23867 4.23389C6.38554 4.02828 6.44915 3.71412 6.42951 3.2914L6.37377 2.09152L4.37885 2.1842ZM0.563008 8.7453L0.505906 7.51616L7.60762 7.18624L7.66472 8.41538L0.563008 8.7453ZM0.633479 10.2622L7.73519 9.9323L7.83263 12.0296C7.86178 12.6572 7.74779 13.2198 7.49066 13.7173C7.23367 14.218 6.85448 14.6136 6.3531 14.9041C5.85172 15.1946 5.26936 15.3553 4.60601 15.3861L4.24995 15.4027C3.57685 15.4339 2.97877 15.3265 2.45571 15.0803C1.93281 14.8374 1.5216 14.4736 1.22209 13.9889C0.922739 13.5075 0.758181 12.9465 0.728422 12.3059L0.633479 10.2622ZM6.7975 11.2125L1.67607 11.4505L1.71346 12.2553C1.74352 12.9024 1.96816 13.3889 2.38739 13.7148C2.81001 14.0439 3.4003 14.194 4.15825 14.1654L4.55333 14.147C5.32399 14.1112 5.90476 13.9164 6.29567 13.5626C6.68657 13.2088 6.86722 12.7132 6.83761 12.0759L6.7975 11.2125Z" fill="white"/>
</svg>
