<svg width="10" height="32" viewBox="0 0 10 32" fill="none" xmlns="http://www.w3.org/2000/svg">
<path opacity="0.8" d="M7.58317 25.9148L7.49741 27.1472L2.24563 29.9583L7.27741 30.3085L7.19164 31.5408L0.0994224 31.0473L0.185186 29.8149L5.45713 26.9954L0.405867 26.6439L0.490952 25.4212L7.58317 25.9148ZM4.71742 18.5643C5.41236 18.6127 6.0145 18.7753 6.52385 19.0522C7.02995 19.3289 7.40866 19.7012 7.66 20.169C7.90831 20.6333 8.01224 21.1561 7.97178 21.7374C7.93178 22.3121 7.75644 22.8155 7.44576 23.2475C7.13205 23.6759 6.70682 23.9955 6.17007 24.2061C5.63354 24.4135 5.02582 24.4952 4.34689 24.4512L3.94747 24.4234C3.25578 24.3753 2.65376 24.211 2.14139 23.9307C1.62924 23.647 1.24902 23.273 1.0007 22.8087C0.749371 22.3409 0.643817 21.818 0.684044 21.24C0.72427 20.662 0.8995 20.1602 1.20973 19.7348C1.51695 19.3058 1.94044 18.9878 2.48021 18.7806C3.01674 18.5732 3.63096 18.492 4.32287 18.5369L4.71742 18.5643ZM4.26146 19.7709C3.4756 19.7162 2.86282 19.8237 2.42312 20.0933C1.98365 20.3597 1.74493 20.7656 1.70696 21.3112C1.6699 21.8437 1.85031 22.2756 2.2482 22.6068C2.64307 22.9344 3.22185 23.1281 3.98452 23.1877L4.39369 23.2162C5.17305 23.2704 5.78595 23.1613 6.23237 22.8889C6.67901 22.6133 6.9211 22.2059 6.95861 21.6669C6.99658 21.1213 6.8179 20.6879 6.42258 20.3667C6.02748 20.0423 5.43051 19.8523 4.63166 19.7967L4.26146 19.7709ZM8.33674 15.0865L1.24452 14.5929L1.41368 12.1623C1.4695 11.3602 1.67273 10.7609 2.02337 10.3643C2.37401 9.96781 2.86757 9.79169 3.50405 9.83598C3.82879 9.85858 4.11495 9.9666 4.36253 10.16C4.61012 10.3535 4.7936 10.624 4.91298 10.9717C5.04356 10.5957 5.26059 10.3139 5.56407 10.1262C5.86453 9.93499 6.21609 9.85341 6.61876 9.88143C7.28447 9.92776 7.78101 10.1777 8.10839 10.6312C8.43599 11.0814 8.57211 11.7044 8.51674 12.5L8.33674 15.0865ZM5.22224 13.6314L7.43856 13.7857L7.53381 12.4169C7.56071 12.0305 7.48593 11.7218 7.30947 11.4909C7.13302 11.26 6.87431 11.1327 6.53334 11.1089C5.79619 11.0576 5.39328 11.4081 5.32461 12.1604L5.22224 13.6314ZM4.31623 13.5684L4.4003 12.3603C4.42696 11.9772 4.3617 11.6724 4.2045 11.4461C4.04429 11.2163 3.80506 11.0904 3.48682 11.0682C3.13611 11.0438 2.87581 11.1269 2.70592 11.3173C2.53626 11.5046 2.43674 11.8093 2.40737 12.2314L2.32397 13.4297L4.31623 13.5684ZM8.86522 7.49256L8.7798 8.72006L1.68758 8.2265L1.773 6.999L8.86522 7.49256ZM8.97065 5.97767L1.87843 5.48411L2.02419 3.38956C2.06781 2.76282 2.24609 2.21724 2.55903 1.75282C2.8722 1.28515 3.2946 0.936033 3.82621 0.705456C4.35782 0.47488 4.95486 0.382643 5.61732 0.428745L5.97291 0.453491C6.64511 0.500271 7.22675 0.676167 7.71782 0.981178C8.20913 1.28294 8.5755 1.69185 8.81695 2.20791C9.05863 2.72071 9.1572 3.29698 9.11268 3.93671L8.97065 5.97767ZM2.95788 4.32089L8.07246 4.67682L8.1284 3.8731C8.17337 3.22688 8.0065 2.71765 7.62778 2.34541C7.24604 1.96969 6.67708 1.75226 5.9209 1.69311L5.52635 1.66565C4.75672 1.61209 4.15731 1.73842 3.72812 2.04465C3.29892 2.35088 3.06218 2.82223 3.01788 3.45872L2.95788 4.32089Z" fill="white"/>
</svg>
