<svg width="200" height="168" viewBox="0 0 200 168" fill="none" xmlns="http://www.w3.org/2000/svg">
<path d="M82.7246 91H80.2539L73.916 80.9121V91H71.4453V76.7812H73.916L80.2734 86.9082V76.7812H82.7246V91ZM84.9707 85.6191C84.9707 84.584 85.1758 83.653 85.5859 82.8262C85.9961 81.9928 86.5723 81.3548 87.3145 80.9121C88.0566 80.4629 88.9095 80.2383 89.873 80.2383C91.2988 80.2383 92.4544 80.6973 93.3398 81.6152C94.2318 82.5332 94.7135 83.7507 94.7852 85.2676L94.7949 85.8242C94.7949 86.8659 94.5931 87.7969 94.1895 88.6172C93.7923 89.4375 93.2194 90.0723 92.4707 90.5215C91.7285 90.9707 90.8691 91.1953 89.8926 91.1953C88.4017 91.1953 87.207 90.7005 86.3086 89.7109C85.4167 88.7148 84.9707 87.39 84.9707 85.7363V85.6191ZM87.3438 85.8242C87.3438 86.9115 87.5684 87.7643 88.0176 88.3828C88.4668 88.9948 89.0918 89.3008 89.8926 89.3008C90.6934 89.3008 91.3151 88.9883 91.7578 88.3633C92.207 87.7383 92.4316 86.8236 92.4316 85.6191C92.4316 84.5514 92.2005 83.7051 91.7383 83.0801C91.2826 82.4551 90.6608 82.1426 89.873 82.1426C89.0983 82.1426 88.4831 82.4518 88.0273 83.0703C87.5716 83.6823 87.3438 84.6003 87.3438 85.8242ZM102.012 91V76.7812H106.885C108.493 76.7812 109.717 77.1035 110.557 77.748C111.396 78.3926 111.816 79.3529 111.816 80.6289C111.816 81.2799 111.641 81.8659 111.289 82.3867C110.938 82.9076 110.423 83.3112 109.746 83.5977C110.514 83.806 111.107 84.1999 111.523 84.7793C111.947 85.3522 112.158 86.0423 112.158 86.8496C112.158 88.1842 111.729 89.2096 110.869 89.9258C110.016 90.6419 108.792 91 107.197 91H102.012ZM104.482 84.584V89.0273H107.227C108.001 89.0273 108.607 88.8353 109.043 88.4512C109.479 88.0671 109.697 87.5332 109.697 86.8496C109.697 85.3717 108.942 84.6165 107.432 84.584H104.482ZM104.482 82.7676H106.904C107.673 82.7676 108.271 82.5951 108.701 82.25C109.137 81.8984 109.355 81.4036 109.355 80.7656C109.355 80.0625 109.154 79.5547 108.75 79.2422C108.353 78.9297 107.731 78.7734 106.885 78.7734H104.482V82.7676ZM116.924 91H114.551V80.4336H116.924V91ZM114.404 77.6895C114.404 77.3249 114.518 77.0221 114.746 76.7812C114.98 76.5404 115.312 76.4199 115.742 76.4199C116.172 76.4199 116.504 76.5404 116.738 76.7812C116.973 77.0221 117.09 77.3249 117.09 77.6895C117.09 78.0475 116.973 78.347 116.738 78.5879C116.504 78.8223 116.172 78.9395 115.742 78.9395C115.312 78.9395 114.98 78.8223 114.746 78.5879C114.518 78.347 114.404 78.0475 114.404 77.6895ZM119.072 85.6387C119.072 84.0111 119.45 82.7057 120.205 81.7227C120.96 80.7331 121.973 80.2383 123.242 80.2383C124.362 80.2383 125.267 80.6289 125.957 81.4102V76H128.33V91H126.182L126.064 89.9062C125.355 90.7656 124.408 91.1953 123.223 91.1953C121.986 91.1953 120.983 90.6973 120.215 89.7012C119.453 88.7051 119.072 87.3509 119.072 85.6387ZM121.445 85.8438C121.445 86.918 121.65 87.7578 122.061 88.3633C122.477 88.9622 123.066 89.2617 123.828 89.2617C124.798 89.2617 125.508 88.8288 125.957 87.9629V83.4512C125.521 82.6048 124.818 82.1816 123.848 82.1816C123.079 82.1816 122.487 82.4876 122.07 83.0996C121.654 83.7051 121.445 84.6198 121.445 85.8438Z" fill="#FC4B4E"/>
<path d="M68.1904 104.044L70.7881 99.0469H72.2783L68.8467 105.288V109H67.5342V105.288L64.1025 99.0469H65.6064L68.1904 104.044ZM72.5791 105.233C72.5791 104.509 72.7204 103.857 73.0029 103.278C73.29 102.7 73.6865 102.253 74.1924 101.938C74.7028 101.624 75.2839 101.467 75.9355 101.467C76.9427 101.467 77.7562 101.815 78.376 102.513C79.0003 103.21 79.3125 104.137 79.3125 105.295V105.384C79.3125 106.104 79.1735 106.751 78.8955 107.325C78.6221 107.895 78.2279 108.339 77.7129 108.658C77.2025 108.977 76.6146 109.137 75.9492 109.137C74.9466 109.137 74.1331 108.788 73.5088 108.091C72.889 107.394 72.5791 106.471 72.5791 105.322V105.233ZM73.8506 105.384C73.8506 106.204 74.0397 106.863 74.418 107.359C74.8008 107.856 75.3112 108.104 75.9492 108.104C76.5918 108.104 77.1022 107.854 77.4805 107.353C77.8587 106.847 78.0479 106.14 78.0479 105.233C78.0479 104.422 77.8542 103.766 77.4668 103.265C77.084 102.759 76.5736 102.506 75.9355 102.506C75.3112 102.506 74.8076 102.754 74.4248 103.251C74.042 103.748 73.8506 104.459 73.8506 105.384ZM85.4648 108.269C84.9727 108.847 84.2503 109.137 83.2979 109.137C82.5094 109.137 81.9079 108.909 81.4932 108.453C81.083 107.993 80.8757 107.314 80.8711 106.416V101.604H82.1357V106.382C82.1357 107.503 82.5915 108.063 83.5029 108.063C84.4691 108.063 85.1117 107.703 85.4307 106.983V101.604H86.6953V109H85.4922L85.4648 108.269ZM92.1982 102.738C92.0068 102.706 91.7995 102.69 91.5762 102.69C90.7467 102.69 90.1839 103.044 89.8877 103.75V109H88.623V101.604H89.8535L89.874 102.458C90.2887 101.797 90.8766 101.467 91.6377 101.467C91.8838 101.467 92.0706 101.499 92.1982 101.562V102.738ZM99.9707 104.563C98.8451 104.24 98.0247 103.843 97.5098 103.374C96.9993 102.9 96.7441 102.317 96.7441 101.624C96.7441 100.84 97.0563 100.193 97.6807 99.6826C98.3096 99.1676 99.1253 98.9102 100.128 98.9102C100.812 98.9102 101.42 99.0423 101.953 99.3066C102.491 99.571 102.906 99.9355 103.197 100.4C103.493 100.865 103.642 101.373 103.642 101.925H102.322C102.322 101.323 102.131 100.852 101.748 100.51C101.365 100.163 100.825 99.9902 100.128 99.9902C99.4808 99.9902 98.9749 100.134 98.6104 100.421C98.2503 100.703 98.0703 101.098 98.0703 101.604C98.0703 102.009 98.2412 102.353 98.583 102.636C98.9294 102.914 99.515 103.169 100.34 103.401C101.169 103.634 101.816 103.891 102.281 104.174C102.751 104.452 103.097 104.778 103.32 105.151C103.548 105.525 103.662 105.965 103.662 106.471C103.662 107.277 103.348 107.924 102.719 108.412C102.09 108.895 101.249 109.137 100.196 109.137C99.5127 109.137 98.8747 109.007 98.2822 108.747C97.6898 108.483 97.2318 108.123 96.9082 107.667C96.5892 107.211 96.4297 106.694 96.4297 106.115H97.749C97.749 106.717 97.9701 107.193 98.4121 107.544C98.8587 107.89 99.4535 108.063 100.196 108.063C100.889 108.063 101.42 107.922 101.789 107.64C102.158 107.357 102.343 106.972 102.343 106.484C102.343 105.997 102.172 105.621 101.83 105.356C101.488 105.088 100.868 104.823 99.9707 104.563ZM106.868 99.8125V101.604H108.249V102.581H106.868V107.168C106.868 107.464 106.93 107.688 107.053 107.838C107.176 107.984 107.385 108.057 107.682 108.057C107.827 108.057 108.028 108.029 108.283 107.975V109C107.951 109.091 107.627 109.137 107.312 109.137C106.747 109.137 106.321 108.966 106.034 108.624C105.747 108.282 105.604 107.797 105.604 107.168V102.581H104.257V101.604H105.604V99.8125H106.868ZM114.299 109C114.226 108.854 114.167 108.594 114.121 108.221C113.533 108.831 112.831 109.137 112.016 109.137C111.286 109.137 110.687 108.932 110.218 108.521C109.753 108.107 109.521 107.583 109.521 106.949C109.521 106.179 109.812 105.582 110.396 105.158C110.983 104.73 111.808 104.516 112.87 104.516H114.101V103.935C114.101 103.493 113.968 103.142 113.704 102.882C113.44 102.618 113.05 102.485 112.535 102.485C112.084 102.485 111.706 102.599 111.4 102.827C111.095 103.055 110.942 103.331 110.942 103.654H109.671C109.671 103.285 109.801 102.93 110.061 102.588C110.325 102.242 110.68 101.968 111.127 101.768C111.578 101.567 112.073 101.467 112.61 101.467C113.463 101.467 114.13 101.681 114.613 102.109C115.096 102.533 115.347 103.119 115.365 103.866V107.271C115.365 107.95 115.452 108.49 115.625 108.891V109H114.299ZM112.2 108.036C112.597 108.036 112.973 107.934 113.328 107.729C113.684 107.523 113.941 107.257 114.101 106.929V105.411H113.109C111.56 105.411 110.785 105.865 110.785 106.771C110.785 107.168 110.917 107.478 111.182 107.701C111.446 107.924 111.785 108.036 112.2 108.036ZM119.063 99.8125V101.604H120.444V102.581H119.063V107.168C119.063 107.464 119.125 107.688 119.248 107.838C119.371 107.984 119.581 108.057 119.877 108.057C120.023 108.057 120.223 108.029 120.479 107.975V109C120.146 109.091 119.822 109.137 119.508 109.137C118.943 109.137 118.517 108.966 118.229 108.624C117.942 108.282 117.799 107.797 117.799 107.168V102.581H116.452V101.604H117.799V99.8125H119.063ZM126.494 108.269C126.002 108.847 125.28 109.137 124.327 109.137C123.539 109.137 122.937 108.909 122.522 108.453C122.112 107.993 121.905 107.314 121.9 106.416V101.604H123.165V106.382C123.165 107.503 123.621 108.063 124.532 108.063C125.498 108.063 126.141 107.703 126.46 106.983V101.604H127.725V109H126.521L126.494 108.269ZM133.959 107.038C133.959 106.696 133.829 106.432 133.569 106.245C133.314 106.054 132.865 105.89 132.223 105.753C131.585 105.616 131.076 105.452 130.698 105.261C130.325 105.069 130.047 104.841 129.864 104.577C129.687 104.313 129.598 103.998 129.598 103.634C129.598 103.028 129.853 102.515 130.363 102.096C130.878 101.676 131.535 101.467 132.332 101.467C133.171 101.467 133.85 101.683 134.369 102.116C134.893 102.549 135.155 103.103 135.155 103.777H133.884C133.884 103.431 133.736 103.132 133.439 102.882C133.148 102.631 132.779 102.506 132.332 102.506C131.872 102.506 131.512 102.606 131.252 102.807C130.992 103.007 130.862 103.269 130.862 103.593C130.862 103.898 130.983 104.128 131.225 104.283C131.466 104.438 131.901 104.586 132.53 104.728C133.164 104.869 133.676 105.037 134.068 105.233C134.46 105.429 134.75 105.666 134.937 105.944C135.128 106.218 135.224 106.553 135.224 106.949C135.224 107.61 134.959 108.141 134.431 108.542C133.902 108.938 133.216 109.137 132.373 109.137C131.781 109.137 131.257 109.032 130.801 108.822C130.345 108.613 129.987 108.321 129.728 107.947C129.472 107.569 129.345 107.161 129.345 106.724H130.609C130.632 107.147 130.801 107.485 131.115 107.735C131.434 107.981 131.854 108.104 132.373 108.104C132.852 108.104 133.234 108.009 133.521 107.817C133.813 107.621 133.959 107.362 133.959 107.038Z" fill="#8492A5"/>
<path fill-rule="evenodd" clip-rule="evenodd" d="M34.7928 40.9053C29.8836 36.4532 22.227 36.7878 18.3915 42.1926C6.80881 58.5146 -0.00012207 78.4621 -0.00012207 99.9999C-0.00012207 121.538 6.8088 141.485 18.3915 157.807C22.227 163.212 29.8835 163.547 34.7928 159.095V159.095C39.7021 154.642 39.9785 147.095 36.3487 141.55C28.5314 129.607 23.9999 115.35 23.9999 99.9999C23.9999 84.6499 28.5314 70.3924 36.3487 58.4501C39.9785 52.905 39.7021 45.3575 34.7928 40.9053V40.9053Z" fill="#FC4B4E"/>
<path opacity="0.8" d="M15.5832 106.915L15.4974 108.147L10.2456 110.958L15.2774 111.308L15.1916 112.541L8.09942 112.047L8.18519 110.815L13.4571 107.995L8.40587 107.644L8.49095 106.421L15.5832 106.915ZM12.7174 99.5643C13.4124 99.6127 14.0145 99.7753 14.5238 100.052C15.0299 100.329 15.4087 100.701 15.66 101.169C15.9083 101.633 16.0122 102.156 15.9718 102.737C15.9318 103.312 15.7564 103.816 15.4458 104.247C15.132 104.676 14.7068 104.995 14.1701 105.206C13.6335 105.414 13.0258 105.495 12.3469 105.451L11.9475 105.423C11.2558 105.375 10.6538 105.211 10.1414 104.931C9.62924 104.647 9.24902 104.273 9.0007 103.809C8.74937 103.341 8.64382 102.818 8.68404 102.24C8.72427 101.662 8.8995 101.16 9.20973 100.735C9.51695 100.306 9.94044 99.9878 10.4802 99.7806C11.0167 99.5732 11.631 99.492 12.3229 99.5369L12.7174 99.5643ZM12.2615 100.771C11.4756 100.716 10.8628 100.824 10.4231 101.093C9.98365 101.36 9.74493 101.766 9.70696 102.311C9.6699 102.844 9.85031 103.276 10.2482 103.607C10.6431 103.934 11.2218 104.128 11.9845 104.188L12.3937 104.216C13.1731 104.27 13.7859 104.161 14.2324 103.889C14.679 103.613 14.9211 103.206 14.9586 102.667C14.9966 102.121 14.8179 101.688 14.4226 101.367C14.0275 101.042 13.4305 100.852 12.6317 100.797L12.2615 100.771ZM16.3367 96.0865L9.24452 95.5929L9.41368 93.1623C9.4695 92.3602 9.67273 91.7609 10.0234 91.3643C10.374 90.9678 10.8676 90.7917 11.504 90.836C11.8288 90.8586 12.1149 90.9666 12.3625 91.16C12.6101 91.3535 12.7936 91.624 12.913 91.9717C13.0436 91.5957 13.2606 91.3139 13.5641 91.1262C13.8645 90.935 14.2161 90.8534 14.6188 90.8814C15.2845 90.9278 15.781 91.1777 16.1084 91.6312C16.436 92.0814 16.5721 92.7044 16.5167 93.5L16.3367 96.0865ZM13.2222 94.6314L15.4386 94.7857L15.5338 93.4169C15.5607 93.0305 15.4859 92.7218 15.3095 92.4909C15.133 92.26 14.8743 92.1327 14.5333 92.1089C13.7962 92.0576 13.3933 92.4081 13.3246 93.1604L13.2222 94.6314ZM12.3162 94.5684L12.4003 93.3603C12.427 92.9772 12.3617 92.6724 12.2045 92.4461C12.0443 92.2163 11.8051 92.0904 11.4868 92.0682C11.1361 92.0438 10.8758 92.1269 10.7059 92.3173C10.5363 92.5046 10.4367 92.8093 10.4074 93.2314L10.324 94.4297L12.3162 94.5684ZM16.8652 88.4926L16.7798 89.7201L9.68758 89.2265L9.773 87.999L16.8652 88.4926ZM16.9706 86.9777L9.87843 86.4841L10.0242 84.3896C10.0678 83.7628 10.2461 83.2172 10.559 82.7528C10.8722 82.2852 11.2946 81.936 11.8262 81.7055C12.3578 81.4749 12.9549 81.3826 13.6173 81.4287L13.9729 81.4535C14.6451 81.5003 15.2267 81.6762 15.7178 81.9812C16.2091 82.2829 16.5755 82.6919 16.817 83.2079C17.0586 83.7207 17.1572 84.297 17.1127 84.9367L16.9706 86.9777ZM10.9579 85.3209L16.0725 85.6768L16.1284 84.8731C16.1734 84.2269 16.0065 83.7176 15.6278 83.3454C15.246 82.9697 14.6771 82.7523 13.9209 82.6931L13.5263 82.6656C12.7567 82.6121 12.1573 82.7384 11.7281 83.0447C11.2989 83.3509 11.0622 83.8222 11.0179 84.4587L10.9579 85.3209Z" fill="white"/>
<path fill-rule="evenodd" clip-rule="evenodd" d="M157.807 18.3917C163.212 22.2271 163.547 29.8837 159.095 34.793V34.793C154.642 39.7022 147.095 39.9786 141.55 36.3489C129.607 28.5315 115.35 24 99.9999 24C84.6499 24 70.3924 28.5315 58.4501 36.3489C52.905 39.9786 45.3575 39.7022 40.9053 34.7929V34.7929C36.4532 29.8837 36.7878 22.2271 42.1926 18.3916C58.5146 6.80892 78.4621 0 99.9999 0C121.538 0 141.485 6.80893 157.807 18.3917Z" fill="#FD9F28"/>
<path fill-rule="evenodd" clip-rule="evenodd" d="M181.608 157.807C177.773 163.212 170.116 163.547 165.207 159.095V159.095C160.298 154.643 160.021 147.095 163.651 141.55C171.468 129.608 176 115.35 176 100C176 84.65 171.468 70.3925 163.651 58.4502C160.021 52.9052 160.298 45.3576 165.207 40.9054V40.9054C170.116 36.4533 177.773 36.7879 181.608 42.1927C193.191 58.5148 200 78.4622 200 100C200 121.538 193.191 141.485 181.608 157.807Z" fill="#28CD6A"/>
<path opacity="0.8" d="M183.21 92.1412L190.311 91.8113L190.425 94.2452C190.462 95.0483 190.329 95.6671 190.027 96.1016C189.724 96.536 189.255 96.768 188.617 96.7976C188.292 96.8127 187.995 96.7385 187.727 96.575C187.459 96.4115 187.245 96.164 187.086 95.8325C187 96.221 186.817 96.526 186.537 96.7476C186.261 96.9722 185.921 97.0939 185.518 97.1127C184.852 97.1436 184.329 96.9528 183.952 96.5402C183.574 96.1309 183.367 95.5278 183.33 94.7312L183.21 92.1412ZM186.472 93.2263L184.252 93.3294L184.316 94.7C184.334 95.087 184.444 95.3849 184.646 95.5939C184.848 95.8028 185.12 95.8994 185.461 95.8835C186.199 95.8492 186.559 95.4545 186.54 94.6994L186.472 93.2263ZM187.379 93.1842L187.435 94.3938C187.453 94.7775 187.553 95.0727 187.735 95.2793C187.921 95.489 188.173 95.5865 188.492 95.5716C188.843 95.5553 189.092 95.4427 189.239 95.2339C189.386 95.0283 189.449 94.7141 189.43 94.2914L189.374 93.0915L187.379 93.1842ZM183.563 99.7453L183.506 98.5162L190.608 98.1862L190.665 99.4154L183.563 99.7453ZM183.633 101.262L190.735 100.932L190.833 103.03C190.862 103.657 190.748 104.22 190.491 104.717C190.234 105.218 189.854 105.614 189.353 105.904C188.852 106.195 188.269 106.355 187.606 106.386L187.25 106.403C186.577 106.434 185.979 106.326 185.456 106.08C184.933 105.837 184.522 105.474 184.222 104.989C183.923 104.508 183.758 103.946 183.728 103.306L183.633 101.262ZM189.798 102.213L184.676 102.45L184.713 103.255C184.744 103.902 184.968 104.389 185.387 104.715C185.81 105.044 186.4 105.194 187.158 105.165L187.553 105.147C188.324 105.111 188.905 104.916 189.296 104.563C189.687 104.209 189.867 103.713 189.838 103.076L189.798 102.213Z" fill="white"/>
<circle cx="103.669" cy="149.556" r="12" transform="rotate(-80.5765 103.669 149.556)" fill="#273443"/>
<path d="M103.669 149.556L101.705 161.394L18.5027 137.282C16.2223 136.622 16.7887 133.245 19.16 133.364L105.634 137.718L103.669 149.556Z" fill="#273443"/>
<circle cx="104.187" cy="150.187" r="2.77104" transform="rotate(-80.5765 104.187 150.187)" fill="white"/>
<path opacity="0.8" d="M59.1882 25.8397L56.6627 19.194L58.9403 18.3285C59.6919 18.0429 60.3212 17.9761 60.8283 18.1282C61.3353 18.2803 61.7021 18.6545 61.9287 19.2509C62.0444 19.5552 62.0663 19.8603 61.9945 20.1662C61.9227 20.472 61.754 20.752 61.4884 21.0062C61.8845 20.9671 62.2313 21.046 62.529 21.2428C62.8285 21.4354 63.05 21.7204 63.1934 22.0977C63.4304 22.7215 63.4117 23.2771 63.1373 23.7644C62.8658 24.2506 62.3574 24.6354 61.6119 24.9187L59.1882 25.8397ZM59.2034 22.4021L59.9926 24.4789L61.2752 23.9915C61.6373 23.8539 61.8862 23.6566 62.0218 23.3996C62.1575 23.1426 62.1646 22.8543 62.0432 22.5348C61.7807 21.8441 61.2936 21.6252 60.5818 21.8783L59.2034 22.4021ZM58.8808 21.5531L60.0127 21.123C60.3718 20.9865 60.6211 20.7995 60.7606 20.5619C60.9021 20.3201 60.9161 20.0501 60.8028 19.7519C60.6779 19.4233 60.4934 19.2218 60.2492 19.1474C60.0081 19.0719 59.6898 19.1093 59.2942 19.2596L58.1713 19.6863L58.8808 21.5531Z" fill="white"/>
<path opacity="0.8" d="M66.7708 23.0318L65.6112 23.4432L63.2345 16.7428L64.3942 16.3315L66.7708 23.0318Z" fill="white"/>
<path opacity="0.8" d="M68.1942 22.5192L65.9734 15.7656L67.9679 15.1097C68.5648 14.9135 69.1373 14.8726 69.6855 14.987C70.2368 15.1004 70.7195 15.3597 71.1338 15.7649C71.548 16.1701 71.8588 16.6881 72.0663 17.319L72.1776 17.6576C72.3881 18.2977 72.4448 18.9027 72.3478 19.4726C72.2539 20.0415 72.0136 20.5351 71.6269 20.9535C71.2433 21.3709 70.7469 21.6798 70.1377 21.8801L68.1942 22.5192ZM67.4581 16.3259L69.0596 21.1963L69.825 20.9447C70.4403 20.7423 70.8489 20.3955 71.0506 19.9043C71.2543 19.4089 71.2408 18.8 71.0101 18.0775L70.8866 17.7017C70.6456 16.9689 70.3023 16.4615 69.8567 16.1797C69.411 15.8979 68.8852 15.8567 68.2791 16.056L67.4581 16.3259Z" fill="white"/>
<path opacity="0.8" d="M82.3522 16.4862L82.0744 11.0311L83.2611 10.7249L83.4485 18.0188L82.3043 18.3139L79.6981 13.6259L79.6566 18.997L78.5077 19.2934L75.1431 12.8192L76.3299 12.5131L78.7328 17.4099L78.7128 11.8983L79.7151 11.6397L82.3522 16.4862Z" fill="white"/>
<path opacity="0.8" d="M87.2823 17.1966L86.0772 17.4451L84.6412 10.4823L85.8463 10.2338L87.2823 17.1966Z" fill="white"/>
<path opacity="0.8" d="M93.5468 9.94378L91.3564 10.2845L92.2961 16.3251L91.085 16.5135L90.1454 10.4729L87.9742 10.8106L87.8211 9.82638L93.3937 8.95952L93.5468 9.94378Z" fill="white"/>
<path opacity="0.8" d="M100.588 15.6641L99.3592 15.7224L99.2093 12.5668L96.0342 12.7176L96.1841 15.8732L94.9501 15.9318L94.6128 8.83047L95.8468 8.77186L95.9872 11.7275L99.1623 11.5767L99.0219 8.62106L100.251 8.56269L100.588 15.6641Z" fill="white"/>
<path opacity="0.8" d="M110.947 14.6034C110.757 15.3411 110.387 15.8821 109.838 16.2264C109.289 16.5675 108.615 16.6742 107.814 16.5467C107.255 16.4576 106.782 16.2472 106.397 15.9154C106.015 15.581 105.747 15.151 105.594 14.6255C105.44 14.1 105.41 13.5134 105.503 12.8657L105.608 12.21C105.713 11.5477 105.924 10.983 106.239 10.5157C106.554 10.0484 106.952 9.7129 107.432 9.50932C107.916 9.30625 108.446 9.25055 109.021 9.34224C109.796 9.46568 110.386 9.77561 110.792 10.272C111.197 10.7684 111.377 11.4069 111.332 12.1875L110.117 11.9939C110.139 11.48 110.049 11.0932 109.847 10.8335C109.648 10.5711 109.32 10.4035 108.864 10.3307C108.333 10.2462 107.894 10.3757 107.546 10.7191C107.202 11.0597 106.967 11.6041 106.841 12.3521L106.742 12.9741C106.621 13.7328 106.664 14.3329 106.87 14.7746C107.08 15.2167 107.447 15.4795 107.971 15.563C108.45 15.6393 108.827 15.589 109.102 15.4121C109.378 15.2351 109.588 14.901 109.732 14.4097L110.947 14.6034Z" fill="white"/>
<path opacity="0.8" d="M125.348 13.4335L123.996 17.9881C123.781 18.7121 123.378 19.2173 122.787 19.5037C122.201 19.7879 121.522 19.8157 120.751 19.5869C119.971 19.3553 119.413 18.964 119.077 18.4128C118.743 17.8584 118.685 17.2115 118.905 16.4719L120.255 11.922L121.435 12.2721L120.081 16.8314C119.946 17.287 119.958 17.6692 120.118 17.978C120.278 18.2869 120.582 18.508 121.032 18.6413C121.943 18.9118 122.541 18.5664 122.826 17.6052L124.168 13.0834L125.348 13.4335Z" fill="white"/>
<path opacity="0.8" d="M132.24 16.7993L130.142 16.0852L128.172 21.8725L127.012 21.4777L128.981 15.6903L126.901 14.9824L127.222 14.0395L132.561 15.8563L132.24 16.7993Z" fill="white"/>
<path opacity="0.8" d="M131.638 23.1138L130.482 22.6919L132.919 16.0135L134.075 16.4353L131.638 23.1138Z" fill="white"/>
<path opacity="0.8" d="M139.845 22.6585C139.591 23.3072 139.256 23.8332 138.839 24.2365C138.424 24.6367 137.956 24.8868 137.434 24.9868C136.917 25.0849 136.387 25.0278 135.844 24.8155C135.308 24.6055 134.88 24.2877 134.56 23.862C134.245 23.4346 134.067 22.9333 134.027 22.3581C133.989 21.7841 134.093 21.1798 134.338 20.545L134.484 20.1722C134.737 19.5265 135.073 19.0011 135.494 18.596C135.918 18.1921 136.389 17.941 136.906 17.8429C137.427 17.7429 137.958 17.7985 138.497 18.0097C139.037 18.2209 139.463 18.5381 139.777 18.9613C140.094 19.3827 140.271 19.8819 140.307 20.4589C140.345 21.0329 140.239 21.6433 139.989 22.2902L139.845 22.6585ZM138.83 21.8627C139.117 21.1291 139.198 20.5122 139.072 20.012C138.949 19.513 138.633 19.1639 138.124 18.9645C137.627 18.77 137.161 18.813 136.726 19.0937C136.295 19.3726 135.937 19.867 135.652 20.577L135.503 20.9589C135.218 21.6864 135.139 22.3039 135.265 22.8113C135.395 23.32 135.711 23.6727 136.214 23.8697C136.724 24.069 137.191 24.0281 137.615 23.7468C138.043 23.4668 138.403 22.9539 138.695 22.2082L138.83 21.8627Z" fill="white"/>
<path opacity="0.8" d="M145.361 28.6592L144.225 28.1725L143.3 22.288L141.313 26.924L140.177 26.4372L142.978 19.9029L144.114 20.3896L145.04 26.2959L147.035 21.642L148.162 22.1248L145.361 28.6592Z" fill="white"/>
<path d="M115.87 16.3632L113.189 15.7347L112.25 17.2148L111 16.9218L115.237 10.6129L116.316 10.8659L117.313 18.4016L116.058 18.1074L115.87 16.3632ZM113.754 14.844L115.76 15.3143L115.43 12.2078L113.754 14.844Z" fill="#FFECD4"/>
</svg>
